# xmcd
#
# Track frame offsets: 
#        150
#        13903
#        36041
#        51641
#        66288
#        79228
#        91593
#        105554
#        120406
#        137034
#
# Disc length: 2010 seconds
#
# Revision: 0
# Processed by: cddbd v1.5.1PL0 Copyright (c) Steve Scherf et al.
# Submitted via: ExactAudioCopy v0.95a5
#
DISCID=8107d80a
DTITLE=Ray Doyle - Reach For The Sky
DYEAR=2000
DGENRE=Classic Country
TTITLE0=Here's To Me
TTITLE1=Blue Highway
TTITLE2=Get Me On A Good One
TTITLE3=I'll Bet My Heart
TTITLE4=Back In The Swing
TTITLE5=That'sAll She Needs
TTITLE6=I'm Going To Hell
TTITLE7=Tall In The Saddle
TTITLE8=The Great Divide
TTITLE9=You Go Your Way
EXTD=
EXTT0=
EXTT1=
EXTT2=
EXTT3=
EXTT4=
EXTT5=
EXTT6=
EXTT7=
EXTT8=
EXTT9=
PLAYORDER=
